{"title":"300 2006 DVDRip BigPerm LKRG","uid":5703950,"size":1438819545,"categoryP":"video","categoryS":"movies","magnet":"?xt=urn:btih:33cb238c2ec917978da9ae2758e52e936fa07e62&amp;dn=300+2006+DVDRip+BigPerm+LKRG&amp;tr=udp%3A%2F%2Ftracker.openbittorrent.com%3A80&amp;tr=udp%3A%2F%2Fopen.demonii.com%3A1337&amp;tr=udp%3A%2F%2Ftracker.coppersurfer.tk%3A6969&amp;tr=udp%3A%2F%2Fexodus.desync.com%3A6969","seeders":0,"leechers":1,"uploader":"neon","files":2,"time":1279632441,"description":"Plot:\n\nKing Leonidas and a force of 300 men fight the Persians at Thermopylae in 480 B.C. \n\nCast:\n\n\nGerard Butler ... King Leonidas\n\nLena Headey ... Queen Gorgo\n\nDominic West ... Theron\n\nDavid Wenham ... Dilios\n\nVincent Regan ... Captain\n\nMichael Fassbender ... Stelios\n\nTom Wisdom ... Astinos\n\nAndrew Pleavin ... Daxos\n\nAndrew Tiernan ... Ephialtes\n\nRodrigo Santoro ... Xerxes\n\nTyler Neitzel ... Leonidas at 15 yrs\n\nStephen McHattie ... Loyalist\n\nGreg Kramer ... Ephor #1\n\nAlex Ivanovici ... Ephor #2\n\nKelly Craig ... Oracle Girl\n\nencoded by bigperm     &lt;a href=&quot;\nhttp://img441.imageshack.us/img441/5863/547pdk.gif&quot; rel=&quot;nofollow&quot; target=&quot;_NEW&quot;&gt;\nhttp://img441.imageshack.us/img441/5863/547pdk.gif&lt;/a&gt;\n\n\n\nGeneral:\n\nComplete name : 300 2006 DVDRip BigPerm LKRG300 LKRG.m4v\nFormat : MPEG-4\nFormat profile : Base Media / Version 2\nCodec ID : mp42\nFile size : 1.34 GiB\nDuration : 1h 56mn\nOverall bit rate : 1 646 Kbps\n\nVideo:\n\nID : 1\nFormat : AVC\nFormat/Info : Advanced Video Codec\nFormat profile : &lt;a class=&quot;__cf_email__&quot; href=&quot;/cdn-cgi/l/email-protection&quot; data-cfemail=&quot;cc81ada5a28c80ffe2fc&quot;&gt;[email&amp;#160;protected]&lt;/a&gt;&lt;script cf-hash='f9e31' type=&quot;text/javascript&quot;&gt;\n/* &lt;![CDATA[ */!function(){try{var t=&quot;currentScript&quot;in document?document.currentScript:function(){for(var t=document.getElementsByTagName(&quot;script&quot;),e=t.length;e--;)if(t[e].getAttribute(&quot;cf-hash&quot;))return t[e]}();if(t&amp;&amp;t.previousSibling){var e,r,n,i,c=t.previousSibling,a=c.getAttribute(&quot;data-cfemail&quot;);if(a){for(e=&quot;&quot;,r=parseInt(a.substr(0,2),16),n=2;a.length-n;n+=2)i=parseInt(a.substr(n,2),16)^r,e+=String.fromCharCode(i);e=document.createTextNode(e),c.parentNode.replaceChild(e,c)}}}catch(u){}}();/* ]]&gt; */&lt;/script&gt;\nFormat settings, CABAC : Yes\nFormat settings, ReFrames : 2 frames\nCodec ID : avc1\nCodec ID/Info : Advanced Video Coding\nDuration : 1h 56mn\nBit rate mode : Variable\nBit rate : 1 481 Kbps\nWidth : 720 pixels\nHeight : 364 pixels\nDisplay aspect ratio : 2.35:1\nFrame rate mode : Variable\nFrame rate : 23.976 fps\nMinimum frame rate : 14.985 fps\nMaximum frame rate : 29.970 fps\nResolution : 8 bits\nColorimetry : 4:2:0\nScan type : Progressive\nBits/(Pixel*Frame) : 0.236\nStream size : 1.21 GiB (90%)\nWriting library : x264 core 79\n\nAudio:\n\nID : 2\nFormat : AAC\nFormat/Info : Advanced Audio Codec\nFormat version : Version 4\nFormat profile : LC\nFormat settings, SBR : No\nCodec ID : 40\nDuration : 1h 56mn\nBit rate mode : Variable\nBit rate : 160 Kbps\nMaximum bit rate : 215 Kbps\nChannel(s) : 2 channels\nChannel positions : Front: L R\nSampling rate : 48.0 KHz\nStream size : 133 MiB (10%)\nLanguage : English","torrent":{"xt":"urn:btih:33cb238c2ec917978da9ae2758e52e936fa07e62","amp;dn":"300+2006+DVDRip+BigPerm+LKRG","amp;tr":["udp%3A%2F%2Ftracker.openbittorrent.com%3A80","udp%3A%2F%2Fopen.demonii.com%3A1337","udp%3A%2F%2Ftracker.coppersurfer.tk%3A6969","udp%3A%2F%2Fexodus.desync.com%3A6969"],"infoHash":"33cb238c2ec917978da9ae2758e52e936fa07e62","infoHashBuffer":{"type":"Buffer","data":[51,203,35,140,46,201,23,151,141,169,174,39,88,229,46,147,111,160,126,98]},"announce":[],"urlList":[]}}